HIERARCHY
ROOT Hips
{
	OFFSET 0.00000 0.00000 0.00000
	CHANNELS 6 Xposition Yposition Zposition Zrotation Yrotation Xrotation 
	JOINT LHipJoint
	{
		OFFSET 0 0 0
		CHANNELS 3 Zrotation Yrotation Xrotation
		JOINT LeftUpLeg
		{
			OFFSET 1.41496 -1.84582 0.78394
			CHANNELS 3 Zrotation Yrotation Xrotation
			JOINT LeftLeg
			{
				OFFSET 2.58040 -7.08960 0.00000
				CHANNELS 3 Zrotation Yrotation Xrotation
				JOINT LeftFoot
				{
					OFFSET 2.64719 -7.27309 0.00000
					CHANNELS 3 Zrotation Yrotation Xrotation
					JOINT LeftToeBase
					{
						OFFSET 0.20718 -0.56921 2.20259
						CHANNELS 3 Zrotation Yrotation Xrotation
						End Site
						{
							OFFSET 0.00000 -0.00000 1.14243
						}
					}
				}
			}
		}
	}
	JOINT RHipJoint
	{
		OFFSET 0 0 0
		CHANNELS 3 Zrotation Yrotation Xrotation
		JOINT RightUpLeg
		{
			OFFSET -1.40551 -1.84582 0.78394
			CHANNELS 3 Zrotation Yrotation Xrotation
			JOINT RightLeg
			{
				OFFSET -2.56572 -7.04926 0.00000
				CHANNELS 3 Zrotation Yrotation Xrotation
				JOINT RightFoot
				{
					OFFSET -2.57974 -7.08778 0.00000
					CHANNELS 3 Zrotation Yrotation Xrotation
					JOINT RightToeBase
					{
						OFFSET -0.26704 -0.73369 2.20815
						CHANNELS 3 Zrotation Yrotation Xrotation
						End Site
						{
							OFFSET -0.00000 -0.00000 1.16246
						}
					}
				}
			}
		}
	}
	JOINT LowerBack
	{
		OFFSET 0 0 0
		CHANNELS 3 Zrotation Yrotation Xrotation
		JOINT Spine
		{
			OFFSET -0.04690 2.05196 -0.07017
			CHANNELS 3 Zrotation Yrotation Xrotation
			JOINT Spine1
			{
				OFFSET 0.04085 2.05260 0.00800
				CHANNELS 3 Zrotation Yrotation Xrotation
				JOINT Neck
				{
					OFFSET 0 0 0
					CHANNELS 3 Zrotation Yrotation Xrotation
					JOINT Neck1
					{
						OFFSET -0.03582 1.80995 0.19301
						CHANNELS 3 Zrotation Yrotation Xrotation
						JOINT Head
						{
							OFFSET 0.00952 1.80195 -0.36389
							CHANNELS 3 Zrotation Yrotation Xrotation
							End Site
							{
								OFFSET 0.00392 1.85062 -0.14494
							}
						}
					}
				}
				JOINT LeftShoulder
				{
					OFFSET 0 0 0
					CHANNELS 3 Zrotation Yrotation Xrotation
					JOINT LeftArm
					{
						OFFSET 3.55224 1.39726 -0.13667
						CHANNELS 3 Zrotation Yrotation Xrotation
						JOINT LeftForeArm
						{
							OFFSET 5.14507 -0.00000 -0.00000
							CHANNELS 3 Zrotation Yrotation Xrotation
							JOINT LeftHand
							{
								OFFSET 3.50646 -0.00000 0.00000
								CHANNELS 3 Zrotation Yrotation Xrotation
								JOINT LeftFingerBase
								{
									OFFSET 0 0 0
									CHANNELS 3 Zrotation Yrotation Xrotation
									JOINT LeftHandIndex1
									{
										OFFSET 0.62997 -0.00000 0.00000
										CHANNELS 3 Zrotation Yrotation Xrotation
										End Site
										{
											OFFSET 0.50790 -0.00000 0.00000
										}
									}
								}
								JOINT LThumb
								{
									OFFSET 0 0 0
									CHANNELS 3 Zrotation Yrotation Xrotation
									End Site
									{
										OFFSET 0.51565 -0.00000 0.51565
									}
								}
							}
						}
					}
				}
				JOINT RightShoulder
				{
					OFFSET 0 0 0
					CHANNELS 3 Zrotation Yrotation Xrotation
					JOINT RightArm
					{
						OFFSET -3.06467 1.61290 -0.28813
						CHANNELS 3 Zrotation Yrotation Xrotation
						JOINT RightForeArm
						{
							OFFSET -5.23200 -0.00000 -0.00000
							CHANNELS 3 Zrotation Yrotation Xrotation
							JOINT RightHand
							{
								OFFSET -3.65641 -0.00000 0.00000
								CHANNELS 3 Zrotation Yrotation Xrotation
								JOINT RightFingerBase
								{
									OFFSET 0 0 0
									CHANNELS 3 Zrotation Yrotation Xrotation
									JOINT RightHandIndex1
									{
										OFFSET -0.65681 -0.00000 0.00000
										CHANNELS 3 Zrotation Yrotation Xrotation
										End Site
										{
											OFFSET -0.52953 -0.00000 0.00000
										}
									}
								}
								JOINT RThumb
								{
									OFFSET 0 0 0
									CHANNELS 3 Zrotation Yrotation Xrotation
									End Site
									{
										OFFSET -0.53762 -0.00000 0.53762
									}
								}
							}
						}
					}
				}
			}
		}
	}
}
MOTION
Frames: 12
Frame Time: .0083333
6.1635 15.1595 42.5019 0 0 0 0 0 0 -21 0 0 0 0 0 0 0 0 0 0 0 0 0 0 21 0 0 0 0 0 0 0 0 0 0 0 0 0 0 0 0 0 0 0 0 0 0 -16 0 0 21 0 0 11 0 0 0 -8 0 0 0 0 0 0 0 0 0 0 0 0 0 0 0 0 0 0 0 0 8 0 0 0 0 0 0 0 0 0 0 0 0 0 0 0 0 0
6.1635 15.1595 42.5019 176.1620 0.1981 -150.9730 0.0000 0.0000 0.0000 -25.3279 -11.5415 -12.3436 8.8763 16.7275 55.6614 0.2157 -5.5210 12.5224 0.0047 -0.4418 -1.2139 0.0000 0.0000 0.0000 13.7933 8.8654 -67.0025 -14.1445 -19.1573 72.6452 -1.9142 -3.6734 -27.6618 -3.5047 11.4704 -33.8834 -2.3955 -2.1685 20.2139 2.8141 -3.3023 -0.2775 5.4902 -1.3842 -11.3744 -0.1544 2.9138 -22.1891 -3.8037 4.9936 -0.8105 -0.6999 2.6344 3.2759 0.0000 -0.0000 0.0000 -78.7836 7.1759 59.7669 134.1538 -51.1764 -97.1039 -0.0000 0.0000 -2.9043 18.4821 -11.4548 -3.7977 -7.1250 0.0000 -0.0000 -6.0658 17.9599 3.9219 0.0000 -0.0000 0.0000 85.3688 -37.8709 19.3635 -65.1301 57.5288 -38.6407 0.0000 -0.0000 -6.2970 -29.9210 1.5169 -0.8728 7.1250 -0.0000 -0.0000 -2.5917 -28.2264 -1.0587
6.1323 15.2022 42.1460 176.8200 0.0110 -151.6250 0.0000 0.0000 0.0000 -24.1981 -11.4967 -14.6486 10.3250 17.5886 60.5691 0.0979 -4.8907 9.6325 0.0051 -0.4609 -1.2666 0.0000 0.0000 0.0000 14.8617 8.4473 -64.5617 -14.0718 -19.1357 72.4238 -2.0571 -3.3957 -28.4813 -3.5229 11.4969 -33.9747 -1.4310 -1.9453 21.3910 3.0455 -2.8402 0.2601 5.1191 -1.2499 -11.5094 0.0830 2.7570 -21.8324 -4.4230 4.8595 -2.5710 -1.0222 2.6432 3.0993 -0.0000 0.0000 0.0000 -79.2994 8.2731 58.2386 128.2532 -53.6762 -92.4246 -0.0000 0.0000 -3.4128 18.9721 -11.3934 -3.8851 -7.1250 0.0000 -0.0000 -5.7214 17.9860 3.6936 -0.0000 0.0000 0.0000 86.0836 -34.7754 18.9763 -64.0757 57.3017 -37.7523 0.0000 -0.0000 -5.8186 -30.3712 0.7427 -0.4352 7.1250 -0.0000 -0.0000 -2.9723 -29.1133 -1.1520
6.0979 15.2298 41.7990 178.0330 0.4803 -151.8580 0.0000 0.0000 0.0000 -22.6393 -10.9110 -17.9818 11.8677 18.3342 65.5688 0.0324 -4.6097 7.6375 0.0294 -1.1077 -3.0452 0.0000 0.0000 0.0000 16.1348 8.8272 -62.3742 -13.8782 -19.0767 71.8321 -2.1007 -3.5157 -28.8178 -3.7643 11.8400 -35.1683 -0.5474 -1.5108 22.0680 3.3927 -2.0884 0.6580 4.7999 -0.9739 -11.5217 0.0153 2.6277 -21.3741 -4.8798 4.8056 -3.8268 -1.1821 2.6886 2.5792 0.0000 0.0000 0.0000 -80.2935 9.3535 56.0616 121.1187 -56.0044 -86.5881 -0.0000 0.0000 -3.7957 19.1549 -11.2038 -3.8611 -7.1250 0.0000 -0.0000 -5.5903 18.1704 3.5854 0.0000 0.0000 0.0000 86.2470 -31.5947 19.2644 -62.5095 56.9424 -36.4369 0.0000 -0.0000 -5.7130 -30.9783 0.1777 -0.1067 7.1250 -0.0000 -0.0000 -3.4706 -29.7638 -1.2920
6.0636 15.2872 41.4298 179.0780 0.2836 -152.3770 0.0000 0.0000 0.0000 -20.9001 -10.8462 -20.9395 13.3617 18.9089 70.2453 -0.0619 -5.4657 5.4321 0.2854 -3.4358 -9.4946 0.0000 0.0000 0.0000 17.4914 8.4733 -59.6095 -13.6497 -19.0043 71.1317 -2.2663 -2.7927 -29.5547 -3.7078 11.7611 -34.8920 0.4806 -1.8585 23.0466 3.7168 -1.4218 1.1044 4.3255 -0.3810 -11.6267 0.0209 2.4575 -21.0772 -5.2862 4.6684 -4.8153 -1.3403 2.6840 2.1884 0.0000 -0.0000 0.0000 -81.3999 10.2231 53.7268 112.3647 -58.0230 -79.2399 -0.0000 0.0000 -3.7563 21.5379 -11.9467 -4.6706 -7.1250 0.0000 -0.0000 -3.9403 17.1839 2.6065 0.0000 -0.0000 0.0000 86.4392 -28.3943 19.7195 -60.9808 56.5657 -35.1584 0.0000 -0.0000 -6.2184 -31.6072 -0.3266 0.2010 7.1250 -0.0000 -0.0000 -3.9880 -30.3505 -1.4294
6.0432 15.3139 41.0624 180.0430 0.4052 -152.5680 0.0000 0.0000 0.0000 -19.0182 -10.7794 -25.1090 14.8857 19.3610 74.8921 -0.1427 -6.6914 2.8006 0.1521 -2.5133 -6.9266 0.0000 0.0000 0.0000 18.6629 8.3635 -57.2724 -13.3849 -18.9167 70.3167 -2.3378 -3.1692 -30.1568 -4.1950 12.4155 -37.2181 1.2418 -1.5552 23.4625 3.9016 -0.7278 1.3580 3.8714 -0.0677 -11.6249 0.1019 2.2987 -20.9091 -5.4580 4.4755 -5.1843 -1.4323 2.6135 2.0329 0.0000 -0.0000 0.0000 -82.5430 10.6282 50.9572 100.3870 -59.5884 -68.9829 -0.0000 0.0000 -4.7376 22.8692 -12.0587 -5.0357 -7.1250 0.0000 -0.0000 -3.0172 16.9378 2.0101 0.0000 -0.0000 0.0000 86.4265 -25.0051 21.0369 -59.4888 56.1722 -33.9161 0.0000 -0.0000 -7.4635 -32.2569 0.7147 -0.4510 7.1250 -0.0000 -0.0000 -4.4447 -29.1222 -1.7244
6.0152 15.3147 40.7084 180.9430 0.5298 -152.8270 0.0000 0.0000 0.0000 -17.2948 -10.6476 -28.7480 16.3810 19.6830 79.3648 -0.1474 -7.1156 0.3319 0.2121 -2.9648 -8.1809 0.0000 0.0000 0.0000 19.7030 8.2209 -55.0191 -13.1629 -18.8402 69.6306 -2.4331 -3.1165 -30.7141 -4.4252 12.7056 -38.2764 2.0335 -1.3265 24.0241 4.1237 -0.0928 1.6544 3.4577 0.2249 -11.6362 0.0989 2.1317 -20.6974 -5.7417 4.3157 -5.8158 -1.5449 2.5803 1.7813 -0.0000 0.0000 0.0000 -83.5177 11.2309 48.2402 89.2418 -59.9978 -59.3434 -0.0000 0.0000 -5.3306 24.0320 -12.3142 -5.4323 -7.1250 0.0000 -0.0000 -2.2219 16.5442 1.4984 -0.0000 0.0000 0.0000 86.2907 -21.7604 22.1114 -58.2537 55.8264 -32.8922 0.0000 -0.0000 -7.8748 -32.6702 0.9340 -0.5989 7.1250 -0.0000 -0.0000 -4.7533 -28.8568 -1.8749
5.9879 15.3041 40.3529 181.7580 0.7262 -153.0250 0.0000 0.0000 0.0000 -15.5852 -10.5213 -32.6015 17.8276 19.8865 83.6367 -0.1148 -7.5274 -2.1025 0.2652 -3.3128 -9.1508 0.0000 0.0000 0.0000 20.6071 8.0662 -52.8379 -12.9505 -18.7642 68.9716 -2.5388 -3.0887 -31.3328 -4.6592 12.9894 -39.3289 2.7028 -1.0596 24.4542 4.3079 0.5458 1.8986 3.0629 0.5205 -11.6209 0.0696 1.9621 -20.5073 -5.9807 4.1444 -6.2886 -1.6372 2.5326 1.5873 -0.0000 0.0000 0.0000 -84.4028 11.7601 45.3863 77.8269 -59.4326 -49.4779 -0.0000 0.0000 -5.9544 25.2685 -12.6837 -5.9171 -7.1250 0.0000 -0.0000 -1.3887 16.0070 0.9522 -0.0000 0.0000 0.0000 86.0048 -18.5585 23.4592 -57.2997 55.5464 -32.1042 0.0000 -0.0000 -8.0884 -32.9377 1.2305 -0.7971 7.1250 -0.0000 -0.0000 -4.9416 -28.5004 -1.9916
5.9609 15.2825 39.9939 182.4640 0.9869 -153.2030 0.0000 0.0000 0.0000 -13.9418 -10.3887 -36.5741 19.1814 19.9839 87.6061 -0.0451 -7.9018 -4.5230 0.3181 -3.6255 -10.0253 0.0000 0.0000 0.0000 21.3570 7.8660 -50.6873 -12.7543 -18.6917 68.3607 -2.6709 -3.0009 -32.0669 -4.8597 13.2240 -40.2130 3.2493 -0.7597 24.7785 4.4431 1.1758 2.1058 2.6821 0.8129 -11.5784 0.0265 1.7926 -20.3637 -6.1858 3.9660 -6.6058 -1.7145 2.4717 1.4539 -0.0000 0.0000 0.0000 -85.0861 12.2948 42.5112 67.1001 -57.9227 -40.3064 -0.0000 0.0000 -6.5091 26.4835 -13.2063 -6.4936 -7.1250 0.0000 -0.0000 -0.5905 15.2895 0.4139 -0.0000 0.0000 0.0000 85.6126 -15.4340 25.0315 -56.8020 55.3957 -31.6942 0.0000 -0.0000 -7.9848 -33.0101 1.4847 -0.9643 7.1250 -0.0000 -0.0000 -4.9805 -28.1970 -2.0432
5.9339 15.2516 39.6304 183.0780 1.3413 -153.3630 0.0000 0.0000 0.0000 -12.3699 -10.2208 -40.6510 20.4141 19.9959 91.2108 0.0540 -8.2092 -6.7918 0.3476 -3.7882 -10.4815 0.0000 0.0000 0.0000 21.9679 7.6391 -48.5289 -12.5471 -18.6125 67.7127 -2.8189 -2.8736 -32.8584 -5.0346 13.4227 -40.9721 3.6665 -0.4173 25.0024 4.5307 1.8042 2.2789 2.3204 1.1052 -11.5116 -0.0232 1.6326 -20.2672 -6.3691 3.7929 -6.7808 -1.7816 2.4036 1.3767 -0.0000 -0.0000 0.0000 -85.4759 12.9680 39.7469 57.8332 -55.7043 -32.5445 -0.0000 0.0000 -6.8387 27.4667 -13.9049 -7.1205 -7.1250 0.0000 -0.0000 0.0227 14.3898 -0.0164 -0.0000 -0.0000 0.0000 85.1488 -12.4361 26.7939 -56.9629 55.4448 -31.8266 0.0000 -0.0000 -7.5799 -32.8738 1.6572 -1.0708 7.1250 -0.0000 -0.0000 -4.8636 -27.9956 -2.0182
5.9065 15.2136 39.2608 183.6220 1.7731 -153.5360 0.0000 0.0000 0.0000 -10.8596 -10.0101 -44.7724 21.5004 19.9459 94.3905 0.1698 -8.4636 -8.8308 0.3766 -3.9412 -10.9113 0.0000 0.0000 0.0000 22.4690 7.3737 -46.2974 -12.3169 -18.5214 66.9899 -2.9879 -2.6475 -33.7074 -5.1671 13.5695 -41.5395 3.9917 -0.0499 25.1575 4.5711 2.4198 2.4281 1.9625 1.3912 -11.4268 -0.0676 1.4920 -20.2165 -6.5321 3.6374 -6.8348 -1.8405 2.3348 1.3488 0.0000 0.0000 0.0000 -85.4811 13.9313 37.2829 50.3991 -53.1552 -26.4932 -0.0000 0.0000 -6.7676 28.1839 -14.8961 -7.8429 -7.1250 0.0000 -0.0000 0.4152 13.1869 -0.3096 0.0000 0.0000 0.0000 84.6696 -9.6018 28.6970 -57.9696 55.7442 -32.6572 0.0000 -0.0000 -6.9865 -32.5227 1.7900 -1.1410 7.1250 -0.0000 -0.0000 -4.5846 -27.8476 -1.9178
5.8784 15.1719 38.8831 184.1310 2.2727 -153.7410 0.0000 0.0000 0.0000 -9.3951 -9.7393 -48.8890 22.4177 19.8593 97.0847 0.2881 -8.6843 -10.5730 0.3801 -3.9592 -10.9620 0.0000 0.0000 0.0000 22.9003 7.0656 -43.9367 -12.0469 -18.4104 66.1374 -3.1681 -2.3547 -34.5706 -5.2726 13.6843 -41.9874 4.2637 0.3299 25.2702 4.5644 3.0198 2.5641 1.5883 1.6686 -11.3261 -0.0962 1.3718 -20.2208 -6.6670 3.5009 -6.7882 -1.8905 2.2676 1.3646 -0.0000 -0.0000 0.0000 -85.0157 15.3306 35.3839 44.8351 -50.6874 -22.1111 -0.0000 0.0000 -6.1989 28.5686 -16.1128 -8.5933 -7.1250 0.0000 -0.0000 0.5476 11.7731 -0.4244 -0.0000 -0.0000 0.0000 84.2322 -6.9658 30.6853 -60.0033 56.3108 -34.3438 0.0000 -0.0000 -6.3650 -31.9837 1.9304 -1.2051 7.1250 -0.0000 -0.0000 -4.1614 -27.6968 -1.7547
